<svg xmlns="http://www.w3.org/2000/svg" xmlns:xlink="http://www.w3.org/1999/xlink" width="500" zoomAndPan="magnify" viewBox="0 0 375 374.999991" height="500" preserveAspectRatio="xMidYMid meet" version="1.0"><defs><g/></defs><g fill="#95c7f4" fill-opacity="1"><g transform="translate(80.783138, 317.174251)"><g><path d="M 49.5625 0 L 49.5625 -266.875 L 102.5625 -266.875 C 130.007812 -266.875 151.359375 -261.15625 166.609375 -249.71875 C 181.859375 -238.28125 189.484375 -222.394531 189.484375 -202.0625 C 189.484375 -187.0625 185.035156 -174.285156 176.140625 -163.734375 C 167.242188 -153.191406 154.789062 -146.015625 138.78125 -142.203125 L 138.78125 -139.921875 C 160.632812 -137.117188 177.722656 -129.554688 190.046875 -117.234375 C 202.378906 -104.910156 208.546875 -89.34375 208.546875 -70.53125 C 208.546875 -48.414062 200.03125 -31.128906 183 -18.671875 C 165.96875 -6.222656 142.078125 0 111.328125 0 Z M 102.9375 -257.71875 L 75.484375 -257.71875 L 75.484375 -143.34375 L 102.5625 -143.34375 C 142.71875 -143.34375 162.796875 -162.40625 162.796875 -200.53125 C 162.796875 -238.65625 142.84375 -257.71875 102.9375 -257.71875 Z M 111.328125 -134.203125 L 75.484375 -134.203125 L 75.484375 -9.15625 L 111.328125 -9.15625 C 157.835938 -9.15625 181.09375 -29.992188 181.09375 -71.671875 C 181.09375 -113.359375 157.835938 -134.203125 111.328125 -134.203125 Z M 111.328125 -134.203125 "/></g></g></g><path stroke-linecap="butt" transform="matrix(0, 0.75, -0.75, 0, 113.923401, 53.629688)" fill="none" stroke-linejoin="miter" d="M -0.00104297 3.002035 L 356.202105 3.002035 " stroke="#95c7f4" stroke-width="6" stroke-opacity="1" stroke-miterlimit="4"/></svg>